<?xml version="1.0" encoding="UTF-8"?>
<svg xmlns="http://www.w3.org/2000/svg" viewBox="0 0 1360 339.2">
  <defs>
    <style>
      .cls-1 {
        fill: #fff;
        stroke-width: 0px;
      }
    </style>
  </defs>
  <g id="logotype_outlined" data-name="logotype outlined">
    <g>
      <path class="cls-1" d="M145.41,114.5q3-.07,7.57-.21c2.8-.07,4.64-.07,6.34-.07,6.21,0,9.48.61,12.08,2.18,3.14,1.98,4.91,5.46,4.91,9.55,0,5.66-3.14,9.48-9.62,11.87,2.8,5.46,7.23,11.94,9.96,14.46,1.64,1.57,3.68,2.46,6,2.66l.2.27-.68,2.25c-.14.55-1.02.82-2.73.82-1.91,0-4.23-.55-6.14-1.43-3.96-1.77-7.37-6.14-13.64-17.67-1.71.21-2.46.27-4.3.27-.96,0-1.64,0-2.93-.07v18.35h-7.03v-43.25ZM152.44,135.31c1.91.14,3.07.14,4.5.14,8.25,0,11.87-2.66,11.87-8.87,0-3.62-1.43-6.07-4.09-7.23-1.5-.61-3.55-.89-6.75-.89-1.5,0-3.21.07-5.53.14v16.71Z"/>
      <path class="cls-1" d="M217.36,114.5v4.37h-22.24v13.78h19.79v4.43h-19.79v16.03h22.72v4.64h-29.75v-43.25h29.27Z"/>
      <path class="cls-1" d="M262.34,136.27v20.26c-5.8,1.3-11.94,2.05-16.78,2.05-6.28,0-11.46-1.23-15.28-3.68-5.66-3.62-9.07-10.3-9.07-17.74,0-13.99,10.78-23.47,26.67-23.47,3.82,0,10.37.89,12.01,1.57.48.27.68.48.68,1.02l.21,3.75v.34l-.14.14-.14.14-.82.55q-.21.14-.27.14c-.2,0-.41-.07-1.3-.61-3-1.64-7.64-2.73-11.53-2.73-10.85,0-17.74,7.03-17.74,18.15s6.89,18.15,18.21,18.15c2.73,0,4.91-.27,8.25-1.09v-16.92h7.03Z"/>
      <path class="cls-1" d="M279.49,114.5v43.25h-7.03v-43.25h7.03Z"/>
      <path class="cls-1" d="M335.46,135.58c0,13.51-10.23,23.2-24.35,23.2-5.66,0-10.92-1.71-14.87-4.84-5.12-4.09-8.25-10.78-8.25-17.46,0-13.23,10.51-22.99,24.76-22.99,13.24,0,22.72,9.21,22.72,22.1ZM295.61,135.38c0,10.71,7.3,18.9,16.71,18.9s15.49-7.37,15.49-17.4c0-5.87-2.25-11.39-6-14.94-2.73-2.59-6.35-3.96-10.51-3.96-9.14,0-15.69,7.23-15.69,17.4Z"/>
      <path class="cls-1" d="M348.89,114.5l28.79,32.75-.82-32.75h5.59l-.07,42.91-3.62,1.09-30.36-34.38.82,33.63h-5.59l.14-43.25h5.12Z"/>
      <path class="cls-1" d="M149.98,182.72l28.79,32.75-.82-32.75h5.59l-.07,42.91-3.62,1.09-30.36-34.38.82,33.63h-5.59l.14-43.25h5.12Z"/>
      <path class="cls-1" d="M239.39,203.81c0,13.51-10.23,23.2-24.35,23.2-5.66,0-10.92-1.71-14.87-4.84-5.12-4.09-8.25-10.78-8.25-17.46,0-13.24,10.51-22.99,24.76-22.99,13.24,0,22.72,9.21,22.72,22.1ZM199.55,203.6c0,10.71,7.3,18.9,16.71,18.9s15.49-7.37,15.49-17.4c0-5.87-2.25-11.39-6-14.94-2.73-2.59-6.35-3.96-10.51-3.96-9.14,0-15.69,7.23-15.69,17.4Z"/>
      <path class="cls-1" d="M248.03,182.72q3-.07,7.57-.2c2.8-.07,4.64-.07,6.35-.07,6.21,0,9.48.61,12.07,2.18,3.14,1.98,4.91,5.46,4.91,9.55,0,5.66-3.14,9.48-9.62,11.87,2.8,5.46,7.23,11.94,9.96,14.46,1.64,1.57,3.68,2.46,6,2.66l.2.27-.68,2.25c-.14.55-1.02.82-2.73.82-1.91,0-4.23-.54-6.14-1.43-3.96-1.77-7.37-6.14-13.64-17.67-1.71.21-2.46.27-4.3.27-.96,0-1.64,0-2.93-.07v18.35h-7.03v-43.25ZM255.06,203.53c1.91.14,3.07.14,4.5.14,8.26,0,11.87-2.66,11.87-8.87,0-3.62-1.43-6.07-4.09-7.23-1.5-.61-3.55-.89-6.75-.89-1.5,0-3.21.07-5.53.14v16.71Z"/>
      <path class="cls-1" d="M290.71,182.72c9.21-.34,13.3-.48,16.78-.48,8.94,0,13.58,1.23,17.6,4.71,4.3,3.68,6.62,9.41,6.62,16.24,0,8.19-3.48,15.01-9.62,18.9-4.37,2.8-9.55,3.89-18.08,3.89h-13.3v-43.25ZM305.38,221.75c6.69,0,11.12-1.3,13.92-4.09,3.07-3,4.78-8.05,4.78-13.92,0-6.89-2.25-12.08-6.55-14.87-2.8-1.84-5.73-2.46-11.26-2.46-1.64,0-4.5.07-8.53.27v35.07h7.64Z"/>
      <path class="cls-1" d="M346.88,182.72v36.64c0,7.71-.61,10.17-3.41,13.64-3.07,3.75-7.23,5.87-11.53,5.87-2.18,0-4.43-.68-5.46-1.64-.2-.27-.27-.48-.27-1.5,0-.82.07-.96.41-1.37l2.05-2.05c.34-.27.41-.34.75-.34h.48q.41,0,1.23.48c.89.48,2.18.75,3.48.75,2.52,0,4.09-1.16,4.78-3.62.34-1.5.48-3.55.48-8.73v-38.14h7.03Z"/>
      <path class="cls-1" d="M359.82,182.72l11.67,19.79,11.94-19.79h7.3l-16.99,24.22v19.04h-7.03v-18.76l-15.15-24.49h8.25Z"/>
      <path class="cls-1" d="M401.98,182.72v38.61h21.08v4.64h-28.11v-43.25h7.03Z"/>
      <path class="cls-1" d="M435.28,182.72v38.61h21.08v4.64h-28.11v-43.25h7.03Z"/>
      <path class="cls-1" d="M484.48,182.72l17.19,43.25h-7.71l-4.98-13.58h-18.01l-5.53,13.58h-6.62l20.33-43.25h5.32ZM480.46,189.62l-7.71,18.69h14.67l-6.96-18.69Z"/>
      <path class="cls-1" d="M512.34,182.72l28.79,32.75-.82-32.75h5.59l-.07,42.91-3.62,1.09-30.36-34.38.82,33.63h-5.59l.14-43.25h5.12Z"/>
      <path class="cls-1" d="M557.17,182.72c9.21-.34,13.3-.48,16.78-.48,8.94,0,13.58,1.23,17.6,4.71,4.3,3.68,6.62,9.41,6.62,16.24,0,8.19-3.48,15.01-9.62,18.9-4.37,2.8-9.55,3.89-18.08,3.89h-13.3v-43.25ZM571.84,221.75c6.69,0,11.12-1.3,13.92-4.09,3.07-3,4.78-8.05,4.78-13.92,0-6.89-2.25-12.08-6.55-14.87-2.8-1.84-5.73-2.46-11.26-2.46-1.64,0-4.5.07-8.53.27v35.07h7.64Z"/>
    </g>
  </g>
  <g id="bomærke">
    <path class="cls-1" d="M56.88,113.54C25.66,113.54.35,138.85.35,170.07s25.31,56.53,56.53,56.53,56.53-25.31,56.53-56.53-25.31-56.53-56.53-56.53ZM91.92,205.11c-9.36,9.36-21.8,14.51-35.04,14.51s-25.68-5.15-35.04-14.51c-9.36-9.36-14.51-21.8-14.51-35.04s5.15-25.68,14.51-35.04c9.36-9.36,21.8-14.51,35.04-14.51s25.68,5.15,35.04,14.51c9.36,9.36,14.51,21.8,14.51,35.04s-5.15,25.68-14.51,35.04ZM46.76,148.87c-4.57,0-8.08,1.39-14.28,5.71v-4.82h-7.67v34.44h7.75v-24.32c4.24-3.18,8-4.73,11.34-4.73,1.37,0,2.52.41,3.37,1.14,2.05-1.85,4.23-3.56,6.53-5.1-1.73-1.52-4.13-2.32-7.04-2.32ZM50.19,163.15c-.36.36-.71.73-1.06,1.09,0,.15,0,.3,0,.46v19.5h7.75v-20.89c0-2.61-.03-4.38-.13-5.69-2.32,1.63-4.52,3.48-6.57,5.53Z"/>
  </g>
</svg>